<svg width="32" height="32" viewBox="0 0 32 32" fill="none" xmlns="http://www.w3.org/2000/svg">
  <rect width="32" height="32" rx="6" fill="#1E293B"/>
  <path d="M16 6C12.134 6 9 9.134 9 13C9 15.3853 10.198 17.4906 12 18.7324V22C12 23.1046 12.8954 24 14 24H18C19.1046 24 20 23.1046 20 22V18.7324C21.802 17.4906 23 15.3853 23 13C23 9.134 19.866 6 16 6ZM16 26H14V27C14 27.5523 14.4477 28 15 28H17C17.5523 28 18 27.5523 18 27V26H16Z" fill="#38BDF8"/>
  <circle cx="16" cy="13" r="2" fill="#1E293B"/>
  <path d="M16 9C15.4477 9 15 9.44772 15 10C15 10.5523 15.4477 11 16 11C16.5523 11 17 10.5523 17 10C17 9.44772 16.5523 9 16 9Z" fill="#38BDF8"/>
  <path d="M13 12C12.4477 12 12 12.4477 12 13C12 13.5523 12.4477 14 13 14C13.5523 14 14 13.5523 14 13C14 12.4477 13.5523 12 13 12Z" fill="#38BDF8"/>
  <path d="M19 12C18.4477 12 18 12.4477 18 13C18 13.5523 18.4477 14 19 14C19.5523 14 20 13.5523 20 13C20 12.4477 19.5523 12 19 12Z" fill="#38BDF8"/>
</svg>
